<svg width="547" height="546" viewBox="0 0 547 546" fill="none" xmlns="http://www.w3.org/2000/svg">
<circle cx="273.475" cy="273.127" r="272.688" fill="url(#paint0_linear_824_2915)"/>
<mask id="mask0_824_2915" style="mask-type:alpha" maskUnits="userSpaceOnUse" x="0" y="0" width="547" height="546">
<circle cx="273.475" cy="273.127" r="272.688" fill="url(#paint1_linear_824_2915)"/>
</mask>
<g mask="url(#mask0_824_2915)">
<path d="M-113.563 433.95C-63.1338 458.487 -6.98431 449.906 46.9072 453.369C77.7668 455.326 109.229 456.229 140.088 453.82C172.002 451.412 201.657 454.121 233.42 458.788C285.354 466.616 334.73 448.552 386.062 445.39C449.287 441.627 513.113 447.046 576.338 445.842C586.123 445.691 586.123 428.079 576.338 427.778C513.113 426.724 449.287 426.875 386.062 428.53C334.73 429.885 279.935 437.261 228.904 428.229C171.098 417.993 113.293 427.928 55.1866 422.509C-0.511314 417.24 -55.9081 420.251 -111.606 417.09C-120.488 416.789 -120.488 430.638 -113.563 433.95Z" fill="white" fill-opacity="0.2"/>
<path d="M-97.6062 372.984C-67.8003 371.629 -37.3923 377.801 -7.28531 378.102C23.5743 378.253 54.2834 381.414 85.1431 381.715C116.003 382.166 146.862 381.715 177.722 382.016C208.582 382.317 238.689 388.338 269.398 390.596C329.913 394.811 391.481 391.349 451.996 391.349C466.448 391.349 482.254 388.941 496.555 390.596C507.544 391.951 518.834 395.715 529.823 397.672C547.887 400.682 575.435 413.478 592.596 400.682C607.649 389.392 593.047 360.489 578.747 372.532C570.919 379.156 552.102 370.575 543.07 369.823C531.178 368.769 519.586 368.317 507.845 366.21C482.103 361.844 454.555 365.156 428.513 365.156C369.503 365.156 309.59 369.07 250.731 363.5C222.28 360.791 195.184 357.629 166.432 357.78C133.916 357.93 100.949 360.339 68.2832 358.532C14.8433 355.522 -46.7254 346.941 -98.5094 366.812C-101.068 367.866 -100.767 373.134 -97.6062 372.984Z" fill="white" fill-opacity="0.2"/>
<path d="M-114.015 328.726C-81.499 332.189 -49.8867 324.06 -17.3712 323.006C14.3916 321.952 46.1544 324.511 77.9173 322.705C143.852 318.942 208.582 309.909 274.817 310.21C306.58 310.361 338.644 308.555 370.256 310.963C397.503 313.071 424.147 320.748 451.545 322.103C477.888 323.458 503.931 327.974 530.124 330.533C558.876 333.393 587.779 340.618 616.531 340.317C636.1 340.016 635.95 302.985 616.531 304.34C561.887 308.103 506.339 290.942 451.545 289.437C424.298 288.684 397.503 280.555 370.256 278.749C338.644 276.641 306.429 278.448 274.817 278.598C208.582 278.749 143.852 288.232 77.9173 292.447C47.5093 294.404 16.9507 292.146 -13.4573 293.351C-47.4782 294.705 -80.4453 305.092 -114.015 310.361C-123.799 311.716 -124.251 327.522 -114.015 328.726Z" fill="white" fill-opacity="0.2"/>
<path d="M-90.5311 250.9C-58.6177 252.556 -27.3064 255.566 4.75748 255.115C35.015 254.663 65.423 252.857 95.6805 251.953C155.593 250.147 215.506 251.351 275.419 251.803C332.472 252.254 389.073 255.265 446.276 255.265C477.587 255.265 508.748 255.265 540.059 255.416C554.059 255.416 568.209 254.663 582.209 255.416C596.961 256.319 611.112 261.136 625.864 262.039C642.423 263.093 642.573 231.481 625.864 231.481C597.262 231.18 568.811 226.965 540.059 226.965C510.253 226.965 480.297 226.965 450.491 227.115C391.933 227.115 333.977 224.406 275.419 225.008C217.012 225.61 158.454 225.309 100.046 228.018C36.3698 231.029 -27.0054 239.158 -90.5311 242.771C-95.0471 242.921 -95.0471 250.599 -90.5311 250.9Z" fill="white" fill-opacity="0.2"/>
<path d="M-92.7889 190.235C-60.1228 192.493 -27.4568 188.88 5.20928 189.03C38.7785 189.181 72.3478 189.783 105.917 189.934C173.206 190.084 240.495 182.708 307.784 185.117C370.858 187.375 433.932 190.837 496.856 185.418C520.49 183.31 542.468 183.009 566.102 186.622C588.08 189.934 610.811 194.901 632.939 194.299C649.047 193.848 649.047 163.741 632.939 164.644C588.231 167.203 544.124 150.945 498.963 156.665C468.706 160.579 437.094 159.375 406.535 159.827C373.267 160.278 340.751 158.171 307.634 157.117C240.345 155.01 173.056 163.289 105.767 163.59C73.5521 163.741 41.3376 162.988 9.27372 164.794C-25.4998 166.751 -58.4669 175.482 -92.9394 179.998C-98.2081 180.751 -98.5092 189.934 -92.7889 190.235Z" fill="white" fill-opacity="0.2"/>
<path d="M-78.7894 125.956C-17.0702 134.838 47.8103 131.676 109.981 131.526C176.217 131.375 241.549 119.935 307.784 121.289C340.299 122.042 372.815 118.58 405.331 118.429C435.588 118.429 465.544 123.698 495.651 123.999C524.103 124.3 551.951 130.472 580.101 132.881C593.65 134.085 605.843 131.225 619.24 133.934C631.283 136.343 644.079 135.139 656.272 134.988C671.777 134.988 671.777 106.236 656.272 106.236C643.477 106.236 631.885 106.236 619.391 103.827C605.542 101.118 591.994 105.634 578.144 103.677C551.65 100.064 525.457 95.3975 498.813 94.7953C468.856 94.1932 439.351 89.0749 409.395 89.2254C375.525 89.376 341.654 92.5372 307.633 92.0856C242.602 91.3329 178.776 103.225 113.895 104.128C80.928 104.58 48.1114 103.978 15.1443 105.182C-0.812408 105.784 -17.0702 105.483 -33.0269 107.29C-48.532 109.096 -63.4349 113.763 -78.94 115.419C-84.3592 116.322 -84.2087 125.203 -78.7894 125.956Z" fill="white" fill-opacity="0.2"/>
</g>
<defs>
<linearGradient id="paint0_linear_824_2915" x1="273.475" y1="0.439941" x2="273.475" y2="545.815" gradientUnits="userSpaceOnUse">
<stop stop-color="#FE5B3E"/>
<stop offset="1" stop-color="#FE7B49"/>
</linearGradient>
<linearGradient id="paint1_linear_824_2915" x1="273.475" y1="0.439941" x2="273.475" y2="545.815" gradientUnits="userSpaceOnUse">
<stop stop-color="#FE5B3E"/>
<stop offset="1" stop-color="#FE7B49"/>
</linearGradient>
</defs>
</svg>
